<?xml version="1.0" encoding="UTF-8" standalone="no"?>
<svg
   xmlns:dc="http://purl.org/dc/elements/1.1/"
   xmlns:cc="http://creativecommons.org/ns#"
   xmlns:rdf="http://www.w3.org/1999/02/22-rdf-syntax-ns#"
   xmlns:svg="http://www.w3.org/2000/svg"
   xmlns="http://www.w3.org/2000/svg"
   version="1.1"
   id="svg2"
   viewBox="0 0 130 86.000003"
   height="86"
   width="130">
  <defs
     id="defs4" />
  <metadata
     id="metadata7">
    <rdf:RDF>
      <cc:Work
         rdf:about="">
        <dc:format>image/svg+xml</dc:format>
        <dc:type
           rdf:resource="http://purl.org/dc/dcmitype/StillImage" />
        <dc:title></dc:title>
      </cc:Work>
    </rdf:RDF>
  </metadata>
  <g
     transform="translate(-178.54088,-155.08508)"
     id="layer1">
    <flowRoot
       style="font-style:normal;font-weight:normal;font-size:40px;line-height:125%;font-family:sans-serif;letter-spacing:0px;word-spacing:0px;fill:#000000;fill-opacity:1;stroke:none;stroke-width:1px;stroke-linecap:butt;stroke-linejoin:miter;stroke-opacity:1"
       id="flowRoot4152"
       xml:space="preserve"><flowRegion
         id="flowRegion4154"><rect
           y="423.79077"
           x="277.14285"
           height="165.71428"
           width="188.57143"
           id="rect4156" /></flowRegion><flowPara
         id="flowPara4158"></flowPara></flowRoot>    <path
       id="path4289-6"
       d="m 178.54088,219.70587 c 0,12.32022 5.03602,21.37921 16.39387,21.37921 11.57215,0 16.60817,-9.05899 16.60817,-21.37921 l 0,-43.24158 c 0,-12.32022 -5.03602,-21.37921 -16.60817,-21.37921 -11.35785,0 -16.39387,9.05899 -16.39387,21.37921 l 0,43.24158 z m 4.92887,-43.60394 c 0,-9.17977 3.21449,-15.94382 11.465,-15.94382 8.35766,0 11.6793,6.76405 11.6793,15.94382 l 0,43.9663 c 0,9.17977 -3.32164,15.94382 -11.6793,15.94382 -8.25051,0 -11.465,-6.76405 -11.465,-15.94382 l 0,-43.9663 z"
       style="font-style:normal;font-variant:normal;font-weight:normal;font-stretch:normal;font-size:90px;line-height:125%;font-family:'Bebas Neue';-inkscape-font-specification:'Bebas Neue, Normal';text-align:start;letter-spacing:0px;word-spacing:0px;writing-mode:lr-tb;text-anchor:start;fill:#fef400;fill-opacity:1;stroke:none;stroke-width:1px;stroke-linecap:butt;stroke-linejoin:miter;stroke-opacity:1" />
    <path
       id="path4292-2"
       d="m 217.2043,156.53452 0,84.55056 2.35728,0 0,-39.01404 9.21486,0 c 9.75061,0 16.39387,3.26123 16.39387,15.70224 l 0,13.28652 c 0,3.6236 0.32145,7.36798 1.82155,10.02528 l 2.57158,0 c -1.71439,-2.6573 -2.03584,-6.76405 -2.03584,-10.02528 l 0,-13.28652 c 0,-9.30056 -3.53593,-15.46067 -11.89359,-16.91011 8.25051,-1.69101 11.89359,-7.36798 11.89359,-17.75562 l 0,-7.60955 c 0,-11.5955 -4.28598,-18.96348 -15.42952,-18.96348 l -14.89378,0 z m 2.35728,43 0,-40.46348 12.42935,0 c 9.64345,0 13.17938,6.40168 13.17938,16.66853 l 0,7.73034 c 0,13.04495 -6.00037,16.06461 -16.39387,16.06461 l -9.21486,0 z"
       style="font-style:normal;font-variant:normal;font-weight:300;font-stretch:normal;font-size:90px;line-height:125%;font-family:'Bebas Neue';-inkscape-font-specification:'Bebas Neue, Light';text-align:start;letter-spacing:0px;word-spacing:0px;writing-mode:lr-tb;text-anchor:start;fill:#000000;fill-opacity:1;stroke:none;stroke-width:1px;stroke-linecap:butt;stroke-linejoin:miter;stroke-opacity:1" />
    <path
       id="path4294-1"
       d="m 258.01319,156.53452 0,84.55056 2.35729,0 0,-84.55056 -2.35729,0 z"
       style="font-style:normal;font-variant:normal;font-weight:300;font-stretch:normal;font-size:90px;line-height:125%;font-family:'Bebas Neue';-inkscape-font-specification:'Bebas Neue, Light';text-align:start;letter-spacing:0px;word-spacing:0px;writing-mode:lr-tb;text-anchor:start;fill:#000000;fill-opacity:1;stroke:none;stroke-width:1px;stroke-linecap:butt;stroke-linejoin:miter;stroke-opacity:1" />
    <path
       id="path4296-2"
       d="m 301.79046,221.1553 4.39313,19.92978 2.35729,0 -18.53687,-84.67135 -3.32163,0 -18.10827,84.67135 2.14299,0 4.39313,-19.92978 26.68023,0 z m -13.50084,-61.60112 13.07224,59.18539 -25.82303,0 12.75079,-59.18539 z"
       style="font-style:normal;font-variant:normal;font-weight:300;font-stretch:normal;font-size:90px;line-height:125%;font-family:'Bebas Neue';-inkscape-font-specification:'Bebas Neue, Light';text-align:start;letter-spacing:0px;word-spacing:0px;writing-mode:lr-tb;text-anchor:start;fill:#000000;fill-opacity:1;stroke:none;stroke-width:1px;stroke-linecap:butt;stroke-linejoin:miter;stroke-opacity:1" />
  </g>
</svg>
